<svg xmlns="http://www.w3.org/2000/svg" viewBox="0 8.859999656677246 181.69000244140625 46.93000030517578" data-asc="0.9052734375" width="181.69000244140625" height="46.93000030517578"><defs/><g fill="#ffffff"><g transform="translate(0, 0)"><path d="M26.90 32.71L31.64 33.91Q30.15 39.75 26.28 42.81Q22.41 45.87 16.82 45.87Q11.04 45.87 7.41 43.52Q3.78 41.16 1.89 36.69Q0 32.23 0 27.10Q0 21.51 2.14 17.35Q4.27 13.18 8.22 11.02Q12.16 8.86 16.89 8.86Q22.27 8.86 25.93 11.60Q29.59 14.33 31.03 19.29L26.37 20.39Q25.12 16.48 22.75 14.70Q20.39 12.92 16.80 12.92Q12.67 12.92 9.90 14.89Q7.13 16.87 6.01 20.20Q4.88 23.54 4.88 27.08Q4.88 31.64 6.21 35.05Q7.54 38.45 10.35 40.14Q13.16 41.82 16.43 41.82Q20.41 41.82 23.17 39.53Q25.93 37.23 26.90 32.71ZM36.91 45.26L36.91 9.47L41.31 9.47L41.31 22.31Q44.38 18.75 49.07 18.75Q51.95 18.75 54.08 19.89Q56.20 21.02 57.12 23.02Q58.03 25.02 58.03 28.83L58.03 45.26L53.64 45.26L53.64 28.83Q53.64 25.54 52.21 24.04Q50.78 22.53 48.17 22.53Q46.22 22.53 44.49 23.55Q42.77 24.56 42.04 26.29Q41.31 28.03 41.31 31.08L41.31 45.26L36.91 45.26ZM63.09 32.30Q63.09 25.10 67.09 21.63Q70.43 18.75 75.24 18.75Q80.59 18.75 83.98 22.25Q87.38 25.76 87.38 31.93Q87.38 36.94 85.88 39.81Q84.38 42.68 81.51 44.26Q78.64 45.85 75.24 45.85Q69.80 45.85 66.44 42.36Q63.09 38.87 63.09 32.30M67.60 32.30Q67.60 37.28 69.78 39.76Q71.95 42.24 75.24 42.24Q78.52 42.24 80.69 39.75Q82.86 37.26 82.86 32.15Q82.86 27.34 80.68 24.87Q78.49 22.39 75.24 22.39Q71.95 22.39 69.78 24.85Q67.60 27.32 67.60 32.30ZM90.89 32.30Q90.89 25.10 94.90 21.63Q98.24 18.75 103.05 18.75Q108.40 18.75 111.79 22.25Q115.19 25.76 115.19 31.93Q115.19 36.94 113.68 39.81Q112.18 42.68 109.31 44.26Q106.45 45.85 103.05 45.85Q97.61 45.85 94.25 42.36Q90.89 38.87 90.89 32.30M95.41 32.30Q95.41 37.28 97.58 39.76Q99.76 42.24 103.05 42.24Q106.32 42.24 108.50 39.75Q110.67 37.26 110.67 32.15Q110.67 27.34 108.48 24.87Q106.30 22.39 103.05 22.39Q99.76 22.39 97.58 24.85Q95.41 27.32 95.41 32.30ZM119.53 47.41L123.80 48.05Q124.07 50.02 125.29 50.93Q126.93 52.15 129.76 52.15Q132.81 52.15 134.47 50.93Q136.13 49.71 136.72 47.51Q137.06 46.17 137.04 41.87Q134.16 45.26 129.86 45.26Q124.51 45.26 121.58 41.41Q118.65 37.55 118.65 32.15Q118.65 28.44 120.00 25.31Q121.34 22.17 123.89 20.46Q126.44 18.75 129.88 18.75Q134.47 18.75 137.45 22.46L137.45 19.34L141.50 19.34L141.50 41.75Q141.50 47.80 140.27 50.33Q139.04 52.86 136.36 54.32Q133.69 55.79 129.79 55.79Q125.15 55.79 122.29 53.70Q119.43 51.61 119.53 47.41M123.17 31.84Q123.17 36.94 125.20 39.28Q127.22 41.63 130.27 41.63Q133.30 41.63 135.35 39.29Q137.40 36.96 137.40 31.98Q137.40 27.22 135.29 24.80Q133.18 22.39 130.20 22.39Q127.27 22.39 125.22 24.77Q123.17 27.15 123.17 31.84ZM148.05 45.26L148.05 9.47L152.44 9.47L152.44 45.26L148.05 45.26ZM177.00 36.91L181.54 37.48Q180.47 41.46 177.56 43.65Q174.66 45.85 170.14 45.85Q164.45 45.85 161.12 42.35Q157.79 38.84 157.79 32.52Q157.79 25.98 161.16 22.36Q164.53 18.75 169.90 18.75Q175.10 18.75 178.39 22.29Q181.69 25.83 181.69 32.25Q181.69 32.64 181.67 33.42L162.33 33.42Q162.57 37.70 164.75 39.97Q166.92 42.24 170.17 42.24Q172.58 42.24 174.29 40.97Q176.00 39.70 177.00 36.91M162.57 29.81L177.05 29.81Q176.76 26.54 175.39 24.90Q173.29 22.36 169.95 22.36Q166.92 22.36 164.86 24.39Q162.79 26.42 162.57 29.81Z"/></g></g></svg>